{"title":"The Change Up 2011 UNRATED BRRiP XviD AC3 - MiSTERE","uid":6773883,"size":2102270121,"categoryP":"video","categoryS":"movies","magnet":"?xt=urn:btih:feff39bf5d6f73568735756bf963f742c782b88a&amp;dn=The+Change+Up+2011+UNRATED+BRRiP+XviD+AC3+-+MiSTERE&amp;tr=udp%3A%2F%2Ftracker.openbittorrent.com%3A80&amp;tr=udp%3A%2F%2Fopen.demonii.com%3A1337&amp;tr=udp%3A%2F%2Ftracker.coppersurfer.tk%3A6969&amp;tr=udp%3A%2F%2Fexodus.desync.com%3A6969","seeders":0,"leechers":0,"uploader":"sceneline","files":143,"time":1319665833,"description":"- &lt;a href=&quot;\nhttp://www.Speed.Cd&quot; rel=&quot;nofollow&quot; target=&quot;_NEW&quot;&gt;\nhttp://www.Speed.Cd&lt;/a&gt;      fast  and The Hottest Private Tracker on the net\n\nPlease Seed back to make the speed Faster!!!\n\n------------------nfo--------------------------\n-\nThe Change Up 2011 UNRATED BRRiP XviD AC3 - MiSTERE\n\nSOURCE: The.Change-Up.UNRATED.720p.Bluray.x264-MHD \n\nVideo\nID                               : 0\nFormat                           : MPEG-4 Visual\nFormat profile                   : Advanced Simple@L5\nFormat settings, BVOP            : 2\nFormat settings, QPel            : No\nFormat settings, GMC             : No warppoints\nFormat settings, Matrix          : Default (H.263)\nMuxing mode                      : Packed bitstream\nCodec ID                         : XVID\nCodec ID/Hint                    : XviD\nDuration                         : 1h 58mn\nBit rate                         : 2 087 Kbps\nWidth                            : 720 pixels\nHeight                           : 304 pixels\nDisplay aspect ratio             : 2.35:1\nFrame rate                       : 23.976 fps\nColor space                      : YUV\nChroma subsampling               : 4:2:0\nBit depth                        : 8 bits\nScan type                        : Progressive\nCompression mode                 : Lossy\nBits/(Pixel*Frame)               : 0.398\nStream size                      : 1.72 GiB (89%)\nWriting library                  : XviD 64\n\nAudio\nID                               : 1\nFormat                           : AC-3\nFormat/Info                      : Audio Coding 3\nMode extension                   : CM (complete main)\nCodec ID                         : 2000\nDuration                         : 1h 58mn\nBit rate mode                    : Constant\nBit rate                         : 256 Kbps\nChannel(s)                       : 6 channels\nChannel positions                : Front: L C R, Side: L R, LFE\nSampling rate                    : 48.0 KHz\nBit depth                        : 16 bits\nCompression mode                 : Lossy\nStream size                      : 216 MiB (11%)\nAlignment                        : Aligned on interleaves\nInterleave, duration             : 42 ms (1.00 video frame)\n\n \nNotes:\nResized and sharpened video \nthen adjusted the RGB abit\n\n[IMG]http://i.imgur.com/T5rM4.png[/IMG]\n[IMG]http://i.imgur.com/ZyKyn.png[/IMG]\n[IMG]http://i.imgur.com/LdWH5.png[/IMG]\n[IMG]http://i.imgur.com/sy1UM.png[/IMG]\n[IMG]http://i.imgur.com/SWmjr.png[/IMG]","torrent":{"xt":"urn:btih:feff39bf5d6f73568735756bf963f742c782b88a","amp;dn":"The+Change+Up+2011+UNRATED+BRRiP+XviD+AC3+-+MiSTERE","amp;tr":["udp%3A%2F%2Ftracker.openbittorrent.com%3A80","udp%3A%2F%2Fopen.demonii.com%3A1337","udp%3A%2F%2Ftracker.coppersurfer.tk%3A6969","udp%3A%2F%2Fexodus.desync.com%3A6969"],"infoHash":"feff39bf5d6f73568735756bf963f742c782b88a","infoHashBuffer":{"type":"Buffer","data":[254,255,57,191,93,111,115,86,135,53,117,107,249,99,247,66,199,130,184,138]},"announce":[],"urlList":[]}}